<svg width="38" height="28" viewBox="0 0 38 28" fill="none" xmlns="http://www.w3.org/2000/svg">
<path d="M0 1.89653C0.0366891 1.81006 0.0783362 1.72553 0.108084 1.63711C0.257616 1.16356 0.557767 0.749255 0.964694 0.454721C1.37162 0.160187 1.864 0.000855918 2.36992 0C3.12452 0 3.87814 0 4.63274 0H35.4635C36.7526 0 37.6976 0.709254 37.9474 1.86155C38.018 2.18925 38.0154 2.52801 37.94 2.85466C37.8646 3.18131 37.7181 3.48815 37.5105 3.75421C37.3029 4.02026 37.0391 4.23925 36.7371 4.3962C36.4352 4.55315 36.1022 4.64436 35.761 4.66359C35.6003 4.67233 35.4397 4.66845 35.2791 4.66845C24.5192 4.66845 13.7614 4.65485 3.00157 4.68497C1.50822 4.68594 0.464068 4.22152 0 2.77095V1.89653Z" fill="white"/>
<path d="M0 13.5555C0.0456135 13.4467 0.0991598 13.3389 0.135849 13.2281C0.292114 12.7769 0.587359 12.3842 0.980904 12.1042C1.37445 11.8242 1.84692 11.6707 2.33323 11.6648C3.14931 11.6532 3.9654 11.6648 4.78148 11.6648C15.0088 11.6648 25.2362 11.6648 35.4635 11.6648C36.7526 11.6648 37.6966 12.3741 37.9474 13.5264C38.017 13.8537 38.0137 14.1918 37.9379 14.5178C37.862 14.8437 37.7153 15.1498 37.5078 15.4152C37.3003 15.6805 37.0368 15.899 36.7354 16.0556C36.434 16.2121 36.1016 16.3032 35.761 16.3226C35.6003 16.3314 35.4397 16.3275 35.2781 16.3275C24.5192 16.3275 13.7604 16.3139 3.00157 16.344C1.50822 16.344 0.464068 15.8835 0 14.4329L0 13.5555Z" fill="white"/>
<path d="M0 25.2145C0.0456135 25.1057 0.0991598 24.9978 0.135849 24.8871C0.292114 24.4358 0.587359 24.0431 0.980904 23.7632C1.37445 23.4832 1.84692 23.3297 2.33323 23.3238C3.14931 23.3121 3.9654 23.3238 4.78148 23.3238H35.4635C36.7526 23.3238 37.6966 24.033 37.9474 25.1853C38.017 25.5126 38.0137 25.8508 37.9379 26.1767C37.862 26.5026 37.7153 26.8087 37.5078 27.0741C37.3003 27.3395 37.0368 27.5579 36.7354 27.7145C36.434 27.8711 36.1016 27.9622 35.761 27.9815C35.6003 27.9903 35.4397 27.9815 35.2781 27.9815C24.5192 27.9815 13.7604 27.9679 3.00157 27.9981C1.50822 27.9981 0.464068 27.5375 0 26.087L0 25.2145Z" fill="white"/>
</svg>
