<svg width="30" height="30" viewBox="0 0 30 30" fill="none" xmlns="http://www.w3.org/2000/svg">
<path d="M1.00999 28.2194C0.965299 28.1102 0.926903 27.9961 0.874526 27.8918C0.665936 27.4622 0.597046 26.9758 0.67735 26.4995C0.757654 26.0233 0.983199 25.5807 1.32291 25.2326C1.89172 24.6473 2.47703 24.0785 3.05408 23.5014C10.2859 16.2696 17.5177 9.0378 24.7495 1.80599C25.6611 0.894471 26.8301 0.728481 27.8223 1.36588C28.1029 1.54813 28.3397 1.78953 28.5165 2.07365C28.6933 2.35777 28.806 2.67793 28.847 3.01231C28.8879 3.34668 28.856 3.68742 28.7536 4.01131C28.6512 4.3352 28.4806 4.63462 28.2534 4.88917C28.146 5.00894 28.0297 5.11978 27.9154 5.23407C20.3078 12.8417 12.6905 20.4397 5.10414 28.0687C4.04819 29.1246 2.98422 29.5373 1.63036 28.8398L1.00999 28.2194Z" fill="white"/>
<path d="M28.1189 29.0878C28.0097 29.1325 27.8956 29.1709 27.7913 29.2233C27.3617 29.4319 26.8753 29.5008 26.399 29.4205C25.9228 29.3401 25.4801 29.1146 25.1321 28.7749C24.5468 28.2061 23.978 27.6208 23.4009 27.0437L1.70547 5.34826C0.793957 4.43675 0.627967 3.26772 1.26537 2.27553C1.44761 1.99492 1.68902 1.75814 1.97314 1.58131C2.25726 1.40448 2.57741 1.29177 2.91179 1.25086C3.24617 1.20994 3.58691 1.24177 3.91079 1.3442C4.23468 1.44662 4.5341 1.61722 4.78866 1.84438C4.90843 1.95178 5.01584 2.07156 5.13013 2.18585C12.7378 9.79349 20.3358 17.4108 27.9647 24.9971C29.0207 26.0531 29.4334 27.117 28.7358 28.4709L28.1189 29.0878Z" fill="white"/>
</svg>
